<svg xmlns="http://www.w3.org/2000/svg" width="275.86" height="106.046" viewBox="0 0 275.86 106.046"><path fill="#3F3E40" d="M22.083 32.217h3.409v37.422l1.492 1.406 4.689.427v3.156H12.066v-3.156l4.602-.427 1.494-1.406V38.055h-6.096v-2.728z"/><path fill="#00837B" d="M18.046 10.196c1.421 0 2.621.498 3.602 1.493s1.471 2.187 1.471 3.581c0 1.391-.49 2.571-1.471 3.537-.981.966-2.181 1.449-3.602 1.449-1.392 0-2.578-.483-3.559-1.449-.979-.966-1.471-2.146-1.471-3.537 0-1.422.491-2.622 1.471-3.603.981-.981 2.167-1.471 3.559-1.471z"/><path fill="#3F3E40" d="M36.02 74.628v-3.156l4.73-.427 1.493-1.406V38.055H36.02v-2.728l10.145-3.11h3.323v4.772c3.495-1.931 6.311-3.287 8.441-4.069 2.131-.784 4.006-1.172 5.626-1.172 3.808 0 6.72 1.137 8.739 3.409 2.018 2.274 3.026 5.57 3.026 9.889v24.593l1.492 1.406 4.688.427v3.156H62.403v-3.156l4.178-.427 1.491-1.406V46.538c0-3.267-.675-5.585-2.024-6.948-1.351-1.364-3.616-2.045-6.798-2.045-1.393 0-2.899.236-4.519.704-1.62.468-3.367 1.187-5.244 2.151v29.24l1.493 1.406 4.178.427v3.156H36.02zm60.059-42.411h3.408v37.422l1.492 1.406 4.688.427v3.156H86.061v-3.156l4.603-.427 1.492-1.406V38.055h-6.095v-2.728z"/><path fill="#00837B" d="M92.042 10.196c1.42 0 2.621.498 3.602 1.493.98.995 1.47 2.187 1.47 3.581 0 1.391-.49 2.571-1.47 3.537-.981.966-2.182 1.449-3.602 1.449-1.393 0-2.578-.483-3.56-1.449-.98-.966-1.47-2.146-1.47-3.537 0-1.422.49-2.622 1.47-3.603.982-.981 2.167-1.471 3.56-1.471z"/><path fill="#3F3E40" d="M115.086 37.885h-5.498v-2.728l5.755-2.516 3.75-8.14h3.239v9.291h13.299v4.092h-13.299V60.9c0 3.78.527 6.316 1.577 7.609 1.05 1.294 2.941 1.938 5.668 1.938.938 0 1.912-.056 2.92-.171a25.943 25.943 0 0 0 3.133-.553v3.24a44.142 44.142 0 0 1-5.882 1.427c-1.933.326-3.792.49-5.583.49-3.353 0-5.705-.632-7.054-1.897-1.35-1.264-2.025-3.572-2.025-6.926V37.885zm34.569-5.668h3.409v37.422l1.493 1.406 4.688.427v3.156h-19.606v-3.156l4.601-.427 1.492-1.406V38.055h-6.093v-2.728z"/><path fill="#00837B" d="M145.619 10.196c1.42 0 2.621.498 3.602 1.493s1.471 2.187 1.471 3.581c0 1.391-.49 2.571-1.471 3.537-.98.966-2.182 1.449-3.602 1.449-1.394 0-2.578-.483-3.559-1.449-.98-.966-1.47-2.146-1.47-3.537 0-1.422.49-2.622 1.47-3.603.981-.981 2.166-1.471 3.559-1.471z"/><path fill="#3F3E40" d="M184.479 31.748c5.938 0 10.812 2.038 14.621 6.115 3.806 4.079 5.713 9.313 5.713 15.708 0 6.394-1.913 11.627-5.734 15.704-3.823 4.081-8.689 6.117-14.6 6.117s-10.762-2.029-14.557-6.092c-3.792-4.065-5.689-9.306-5.689-15.729 0-6.421 1.881-11.665 5.648-15.728 3.765-4.062 8.632-6.095 14.598-6.095zm0 3.75c-3.637 0-6.557 1.641-8.76 4.923-2.201 3.283-3.303 7.665-3.303 13.15 0 5.484 1.109 9.866 3.325 13.149 2.216 3.282 5.129 4.921 8.737 4.921 3.665 0 6.609-1.631 8.824-4.899 2.216-3.268 3.324-7.657 3.324-13.171 0-5.455-1.116-9.832-3.347-13.127-2.229-3.298-5.165-4.946-8.8-4.946z"/><path d="M11.773 88.181h2.419c2.286 0 3.836 1.404 3.836 3.845 0 2.451-1.55 3.849-3.836 3.849h-2.419v-7.694zm2.341 7.254c2.046 0 3.419-1.199 3.419-3.409 0-2.199-1.373-3.409-3.419-3.409h-1.868v6.818h1.868zm5.803-7.254h4.21v.436H20.39v3.158h3.068v.438H20.39v3.222h3.946v.439h-4.419v-7.693zm6.022 6.506s.78.856 2.055.856c.956 0 1.715-.593 1.715-1.515 0-2.19-3.936-1.585-3.936-3.992 0-1.022.912-1.99 2.309-1.99 1.253 0 1.957.715 1.957.715l-.264.406s-.66-.658-1.682-.658c-1.143 0-1.825.769-1.825 1.518 0 2.033 3.936 1.407 3.936 3.978 0 1.111-.858 2.002-2.232 2.002-1.518 0-2.353-.956-2.353-.956l.32-.364zm9.848-1.474h-3.265l-.989 2.661h-.506l2.88-7.693h.505l2.88 7.693h-.506l-.999-2.661zm-1.637-4.484s-.165.593-.287.925l-1.176 3.118h2.935l-1.165-3.118c-.122-.332-.286-.925-.286-.925h-.021zm4.526-.548h2.254c.715 0 1.077.075 1.385.229.638.319 1.067.969 1.067 1.846 0 1.101-.637 1.925-1.54 2.125v.019s.078.088.176.276l1.726 3.199h-.56l-1.825-3.406H39.15v3.406h-.473v-7.694zm2.562 3.845c1.011 0 1.648-.724 1.648-1.771 0-.68-.34-1.231-.901-1.482-.22-.098-.461-.156-1.077-.156h-1.759v3.409h2.089zm4.262-3.845h2.254c.715 0 1.078.075 1.385.229.638.319 1.067.969 1.067 1.846 0 1.101-.638 1.925-1.54 2.125v.019s.076.088.176.276l1.726 3.199h-.561l-1.824-3.406h-2.209v3.406H45.5v-7.694zm2.562 3.845c1.011 0 1.649-.724 1.649-1.771 0-.68-.34-1.231-.901-1.482-.221-.098-.462-.156-1.078-.156h-1.758v3.409h2.088zm7.617-3.98c2.145 0 3.892 1.717 3.892 3.926 0 2.264-1.747 4.034-3.892 4.034-2.144 0-3.892-1.771-3.892-4.034 0-2.209 1.748-3.926 3.892-3.926zm0 7.509c1.88 0 3.397-1.561 3.397-3.583 0-1.968-1.517-3.475-3.397-3.475-1.879 0-3.396 1.507-3.396 3.475 0 2.023 1.517 3.583 3.396 3.583zm5.724-7.374h.473v7.254h3.671v.439h-4.145v-7.693zm5.595 0h.473v7.254h3.672v.439h-4.145v-7.693zm8.528-.135c2.144 0 3.892 1.717 3.892 3.926 0 2.264-1.748 4.034-3.892 4.034s-3.891-1.771-3.891-4.034c0-2.209 1.747-3.926 3.891-3.926zm0 7.509c1.88 0 3.396-1.561 3.396-3.583 0-1.968-1.516-3.475-3.396-3.475s-3.396 1.507-3.396 3.475c0 2.023 1.516 3.583 3.396 3.583zm12.068-7.509c1.825 0 2.748.968 2.748.968l-.286.352s-.912-.868-2.451-.868c-1.891 0-3.332 1.485-3.332 3.475 0 2 1.43 3.583 3.364 3.583 1.649 0 2.607-1.044 2.607-1.044l.296.329s-1.034 1.166-2.903 1.166c-2.242 0-3.858-1.803-3.858-4.034 0-2.234 1.649-3.927 3.815-3.927zm4.767.135h2.253c.716 0 1.079.075 1.386.229.638.319 1.066.969 1.066 1.846 0 1.101-.638 1.925-1.538 2.125v.019s.076.088.176.276l1.725 3.199h-.561l-1.826-3.406h-2.208v3.406h-.474v-7.694zm2.562 3.845c1.011 0 1.649-.724 1.649-1.771 0-.68-.341-1.231-.901-1.482-.22-.098-.462-.156-1.077-.156h-1.759v3.409h2.088zm4.264-3.845h4.21v.436H99.66v3.158h3.065v.438H99.66v3.222h3.945v.439h-4.418v-7.693zm10.044 5.032h-3.264l-.989 2.661h-.506l2.88-7.693h.506l2.88 7.693h-.506l-1.001-2.661zm-1.637-4.484s-.165.593-.285.925l-1.178 3.118h2.936l-1.166-3.118c-.121-.332-.285-.925-.285-.925h-.022zm5.792-.112h-2.869v-.436h6.212v.436h-2.871v7.258h-.473v-7.258zm4.614-.436h.473v7.693H118v-7.693zm1.847 0h.505l2.319 6.22c.132.364.297.925.297.925h.023s.165-.561.295-.925l2.331-6.22h.506l-2.88 7.693h-.517l-2.879-7.693zm10.958-.135c2.145 0 3.892 1.717 3.892 3.926 0 2.264-1.747 4.034-3.892 4.034-2.143 0-3.89-1.771-3.89-4.034 0-2.209 1.747-3.926 3.89-3.926zm0 7.509c1.881 0 3.397-1.561 3.397-3.583 0-1.968-1.516-3.475-3.397-3.475-1.879 0-3.396 1.507-3.396 3.475 0 2.023 1.517 3.583 3.396 3.583zm8.77-7.374h2.418c2.286 0 3.836 1.404 3.836 3.845 0 2.451-1.551 3.849-3.836 3.849h-2.418v-7.694zm2.342 7.254c2.044 0 3.418-1.199 3.418-3.409 0-2.199-1.374-3.409-3.418-3.409h-1.869v6.818h1.869zm5.802-7.254h4.209v.436h-3.737v3.158h3.067v.438h-3.067v3.222h3.947v.439h-4.419v-7.693zm13.089 5.032h-3.265l-.989 2.661h-.506l2.88-7.693h.506l2.881 7.693h-.507l-1-2.661zm-1.638-4.484s-.165.593-.285.925l-1.176 3.118h2.934l-1.164-3.118c-.122-.332-.286-.925-.286-.925h-.023zm4.526-.548h2.529c1.342 0 2.341.843 2.341 2.24s-.999 2.264-2.341 2.264h-2.056v3.189h-.474v-7.693zm2.507 4.068c1.121 0 1.87-.671 1.87-1.827 0-1.153-.749-1.805-1.87-1.805h-2.033v3.632h2.033zm4.001-4.068h.473v7.254h3.671v.439h-4.144v-7.693zm5.593 0h.473v7.693h-.473v-7.693zm6.143-.135c1.825 0 2.749.968 2.749.968l-.287.352s-.911-.868-2.45-.868c-1.891 0-3.332 1.485-3.332 3.475 0 2 1.431 3.583 3.364 3.583 1.649 0 2.605-1.044 2.605-1.044l.298.329s-1.035 1.166-2.903 1.166c-2.241 0-3.856-1.803-3.856-4.034 0-2.234 1.647-3.927 3.812-3.927zm8.54 5.167h-3.265l-.989 2.661h-.507l2.883-7.693h.505l2.88 7.693h-.508l-.999-2.661zm-1.637-4.484s-.165.593-.285.925l-1.177 3.118h2.936l-1.165-3.118c-.122-.332-.285-.925-.285-.925h-.024zm7.78-.683c1.826 0 2.749.968 2.749.968l-.286.352s-.912-.868-2.452-.868c-1.89 0-3.33 1.485-3.33 3.475 0 2 1.43 3.583 3.363 3.583 1.648 0 2.606-1.044 2.606-1.044l.298.329s-1.034 1.166-2.904 1.166c-2.241 0-3.858-1.803-3.858-4.034 0-2.234 1.648-3.927 3.814-3.927zm4.77.135h.473v7.693h-.473v-7.693zm6.199-.135c2.145 0 3.893 1.717 3.893 3.926 0 2.264-1.748 4.034-3.893 4.034-2.144 0-3.892-1.771-3.892-4.034 0-2.209 1.748-3.926 3.892-3.926zm0 7.509c1.881 0 3.396-1.561 3.396-3.583 0-1.968-1.516-3.475-3.396-3.475s-3.397 1.507-3.397 3.475c-.001 2.023 1.517 3.583 3.397 3.583zm5.724-7.374h.44l4.385 6.033c.255.353.627.968.627.968h.022s-.057-.583-.057-.968v-6.033h.475v7.693h-.44l-4.388-6.036c-.25-.352-.624-.968-.624-.968h-.023s.056.583.056.968v6.036h-.473v-7.693zm8.264 0h4.212v.436h-3.738v3.158h3.067v.438h-3.067v3.222h3.947v.439h-4.421v-7.693zm6.024 6.506s.78.856 2.054.856c.958 0 1.715-.593 1.715-1.515 0-2.19-3.936-1.585-3.936-3.992 0-1.022.912-1.99 2.309-1.99 1.252 0 1.958.715 1.958.715l-.264.406s-.66-.658-1.684-.658c-1.143 0-1.823.769-1.823 1.518 0 2.033 3.934 1.407 3.934 3.978 0 1.111-.856 2.002-2.23 2.002-1.517 0-2.352-.956-2.352-.956l.319-.364z" fill="#00837B"/><path d="M220.645 71.216a15.555 15.555 0 0 1-3.687-1.577l-1.067-7.416h-4.176v11.338c1.62.624 3.389 1.087 5.308 1.387 1.643.257 3.358.393 5.136.43l1.873-3.66a14.08 14.08 0 0 1-3.387-.502zm8.247-20.501a66.733 66.733 0 0 1-2.087-.981c-2.899-1.393-4.858-2.656-5.883-3.793-1.023-1.137-1.533-2.515-1.533-4.135 0-1.988.64-3.538 1.916-4.646 1.28-1.107 3.056-1.663 5.329-1.663 1.051 0 2.103.157 3.155.468 1.05.315 2.158.783 3.324 1.407l.682 6.182h4.304v-9.89a23.805 23.805 0 0 0-4.751-1.428c-1.69-.325-3.517-.488-5.479-.488-4.915 0-8.724 1.064-11.423 3.196-2.699 2.131-4.047 5.144-4.047 9.035 0 2.559.786 4.704 2.365 6.438 1.575 1.731 4.551 3.58 8.931 5.541 3.09 1.409 5.258 2.621 6.531 3.641l3.323-6.498c-1.274-.753-2.819-1.545-4.657-2.386z" fill="#3F3E40"/><path fill="#00837B" d="M261.733 12.25h4.98l-34.896 63.062h-4.899l34.815-63.062z"/></svg>